<svg class="w-full absolute bottom-0 left-0" id="Capa_1" data-name="Capa 1" xmlns="http://www.w3.org/2000/svg" viewBox="0 0 497.5 141.26"><title>skyline</title><rect x="330.19" y="60.71" width="4.83" height="2.04" transform="translate(665.21 123.45) rotate(180)" style="fill:#bebcdb"/><rect x="329.57" y="62.3" width="6.07" height="0.89" transform="translate(665.21 125.48) rotate(180)" style="fill:#bebcdb"/><rect x="328.06" y="63.18" width="9.1" height="2.3" transform="translate(665.21 128.67) rotate(180)" style="fill:#bebcdb"/><polygon points="332.04 40.63 333.17 40.63 332.77 30 332.45 30 332.04 40.63" style="fill:#bebcdb"/><path d="M331.32,40.45v20.7h2.57V40.45Zm1.46,9.1h.34V60.26h-.34Zm-.69,0h.35V60.26h-.35Z" style="fill:#bebcdb"/><rect x="190.33" y="100.21" width="13.96" height="48.65" style="fill:#bebcdb"/><polygon points="279.77 148.86 279.77 55.81 245.96 40.11 233.42 40.11 233.42 37.34 232.94 37.34 232.94 61.91 230.37 61.91 230.37 45.39 216.55 45.39 216.55 61.91 214.24 61.91 214.24 87.38 211.64 87.38 211.64 148.86 279.77 148.86" style="fill:#bebcdb"/><polygon points="65.25 148.86 65.25 94.66 45.56 85.52 38.26 85.52 28.43 88.59 28.43 98.22 27.08 98.22 27.08 113.05 25.57 113.05 25.57 148.86 65.25 148.86" style="fill:#bebcdb"/><rect x="164.44" y="95.42" width="9.07" height="53.44" style="fill:#bebcdb"/><rect x="153.67" y="87.02" width="16.77" height="61.84" style="fill:#bebcdb"/><rect x="138.3" y="98.85" width="12.5" height="49.2" style="fill:#bebcdb"/><rect x="162.49" y="41.08" width="21.7" height="106.97" style="fill:#bebcdb"/><rect x="320.95" y="50.58" width="18.44" height="92.45" transform="translate(660.35 193.6) rotate(180)" style="fill:#bebcdb"/><rect x="329.51" y="67.95" width="18.44" height="80.8" style="fill:#bebcdb"/><path d="M322,39.93V56.22H309.5V49.94h-6.85V47.33H299v2.61H281.78c-.06.1-.11.2-.18.3V78.18h-7.21v70.68h48.8V39.93Z" style="fill:#bebcdb"/><polygon points="64.67 148.86 64.67 95.61 67.3 99.1 74.48 99.1 74.48 85.03 74.76 85.03 74.76 99.1 76.23 99.1 76.23 89.64 84.13 89.64 84.13 99.1 85.46 99.1 85.46 113.68 86.94 113.68 86.94 148.86 64.67 148.86" style="fill:#bebcdb"/><rect x="89.35" y="56.43" width="13.96" height="92.43" style="fill:#bebcdb"/><polygon points="103.21 148.86 103.21 79.28 116.61 79.28 123.81 86.73 123.81 148.86 103.21 148.86" style="fill:#bebcdb"/><polygon points="218.96 100.21 218.96 103.08 219.97 103.08 219.97 108.84 223.37 108.84 223.37 148.86 205.56 148.86 205.56 100.21 218.96 100.21" style="fill:#ada7ce"/><rect x="179.43" y="66.54" width="5.85" height="0.52" style="fill:#fffffc"/><rect x="177.96" y="67.07" width="8.77" height="8.79" style="fill:#d0d4ea"/><rect x="195.68" y="50.74" width="1.17" height="43.49" transform="translate(392.53 144.97) rotate(180)" style="fill:#d5daee"/><rect x="198.28" y="50.74" width="1.17" height="43.49" transform="translate(397.74 144.97) rotate(180)" style="fill:#d5daee"/><rect x="183.81" y="63.4" width="18.68" height="48.45" style="fill:#e6f1f5"/><polygon points="214.42 95.41 193.43 95.41 193.43 80.82 214.42 95.41" style="fill:#f3f8f5"/><rect x="170.01" y="76.18" width="25.26" height="72.68" style="fill:#e6f1f5"/><rect x="192.35" y="94.21" width="23.15" height="54.65" style="fill:#d5daee"/><polygon points="494.06 113.31 494.06 115.55 494.84 115.55 494.84 120.04 497.5 120.04 497.5 151.26 483.6 151.26 483.6 113.31 494.06 113.31" style="fill:#ada7ce"/><rect x="463.22" y="87.05" width="4.56" height="0.41" style="fill:#fffffc"/><rect x="462.08" y="87.46" width="6.84" height="6.85" style="fill:#d0d4ea"/><rect x="475.89" y="74.73" width="0.92" height="33.92" transform="translate(952.7 183.37) rotate(180)" style="fill:#d5daee"/><rect x="477.93" y="74.73" width="0.92" height="33.92" transform="translate(956.77 183.37) rotate(180)" style="fill:#d5daee"/><rect x="466.64" y="84.61" width="14.57" height="37.79" style="fill:#e6f1f5"/><polygon points="490.51 109.57 474.14 109.57 474.14 98.19 490.51 109.57" style="fill:#f3f8f5"/><rect x="455.88" y="94.57" width="19.7" height="56.69" style="fill:#e6f1f5"/><rect x="473.3" y="108.63" width="18.06" height="42.62" style="fill:#d5daee"/><polygon points="2.64 122.08 2.64 123.8 2.04 123.8 2.04 127.26 0 127.26 0 151.26 10.68 151.26 10.68 122.08 2.64 122.08" style="fill:#ada7ce"/><rect x="22.85" y="101.9" width="3.51" height="0.31" transform="translate(49.2 204.11) rotate(180)" style="fill:#fffffc"/><rect x="21.97" y="102.21" width="5.26" height="5.27" transform="translate(49.2 209.69) rotate(180)" style="fill:#d0d4ea"/><rect x="15.9" y="92.42" width="0.7" height="26.08" style="fill:#d5daee"/><rect x="14.34" y="92.42" width="0.7" height="26.08" style="fill:#d5daee"/><rect x="12.52" y="100.01" width="11.2" height="29.05" transform="translate(36.24 229.08) rotate(180)" style="fill:#e6f1f5"/><polygon points="5.37 119.2 17.95 119.2 17.95 110.46 5.37 119.2" style="fill:#f3f8f5"/><rect x="16.85" y="107.67" width="15.15" height="43.58" style="fill:#e6f1f5"/><rect x="4.72" y="118.49" width="13.88" height="32.77" style="fill:#d5daee"/><rect x="247.54" y="10" width="9.43" height="62.81" style="fill:#afaacf"/><rect x="240.25" y="12.37" width="34.36" height="77.61" style="fill:#d5daee"/><rect x="236.38" y="70.31" width="6.24" height="1.66" transform="translate(479 142.28) rotate(180)" style="fill:#f3f8f5"/><rect x="235.58" y="71.61" width="7.83" height="0.72" transform="translate(479 143.94) rotate(180)" style="fill:#f3f8f5"/><rect x="233.63" y="72.33" width="11.74" height="12.1" transform="translate(479 156.76) rotate(180)" style="fill:#afaacf"/><polygon points="252.98 43.37 252.98 148.86 279.77 148.86 279.77 55.81 252.98 43.37" style="fill:#d5daee"/><rect x="231.1" y="66.23" width="15.96" height="82.63" style="fill:#afaacf"/><rect x="242.99" y="74.34" width="1.31" height="52.62" style="fill:#b9b5d6"/><rect x="240.08" y="74.34" width="1.31" height="52.62" style="fill:#b9b5d6"/><rect x="237.16" y="74.34" width="1.31" height="52.62" style="fill:#b9b5d6"/><rect x="234.25" y="74.34" width="1.31" height="52.62" style="fill:#b9b5d6"/><rect x="253.24" y="64.52" width="9.22" height="9.79" style="fill:#d5daee"/><rect x="393.32" y="42.47" width="7.23" height="48.12" style="fill:#afaacf"/><rect x="387.74" y="44.28" width="26.33" height="59.47" style="fill:#d5daee"/><rect x="384.77" y="88.67" width="4.78" height="1.27" transform="translate(774.33 178.62) rotate(180)" style="fill:#f3f8f5"/><rect x="384.16" y="89.67" width="6" height="0.55" transform="translate(774.33 179.89) rotate(180)" style="fill:#f3f8f5"/><rect x="382.66" y="90.22" width="9" height="9.27" transform="translate(774.33 189.72) rotate(180)" style="fill:#afaacf"/><polygon points="397.49 68.03 397.49 148.86 418.02 148.86 418.02 77.56 397.49 68.03" style="fill:#d5daee"/><rect x="380.73" y="85.55" width="12.23" height="63.31" style="fill:#bebcdb"/><rect x="389.84" y="91.76" width="1" height="40.32" style="fill:#b9b5d6"/><rect x="387.61" y="91.76" width="1" height="40.32" style="fill:#b9b5d6"/><rect x="385.38" y="91.76" width="1" height="40.32" style="fill:#b9b5d6"/><rect x="383.14" y="91.76" width="1" height="40.32" style="fill:#b9b5d6"/><rect x="397.69" y="84.24" width="7.06" height="7.5" style="fill:#d5daee"/><rect x="144.5" y="83.05" width="4.91" height="7.24" transform="translate(293.91 173.35) rotate(180)" style="fill:#ada7ce"/><rect x="147.62" y="87.15" width="6.4" height="5.51" transform="translate(301.65 179.82) rotate(180)" style="fill:#ada7ce"/><rect x="174.03" y="31.75" width="8.66" height="8.92" transform="translate(356.72 72.41) rotate(180)" style="fill:#ada7ce"/><polygon points="131.9 148.86 132.9 92.77 134.11 92.77 134.11 87.02 153.95 84.96 153.95 96.28 156.29 96.28 156.29 34.61 184.49 34.61 184.49 94.87 187.03 94.87 187.03 148.86 131.9 148.86" style="fill:#d9e0f0"/><rect x="135.14" y="104.9" width="8.6" height="2.35" transform="translate(278.88 212.15) rotate(180)" style="fill:#bebcdb"/><rect x="135.14" y="109.19" width="8.6" height="2.35" transform="translate(278.88 220.73) rotate(180)" style="fill:#bebcdb"/><rect x="135.14" y="113.48" width="8.6" height="2.35" transform="translate(278.88 229.31) rotate(180)" style="fill:#bebcdb"/><rect x="135.14" y="117.77" width="8.6" height="2.35" transform="translate(278.88 237.89) rotate(180)" style="fill:#bebcdb"/><rect x="135.14" y="122.06" width="8.6" height="2.35" transform="translate(278.88 246.47) rotate(180)" style="fill:#bebcdb"/><rect x="135.14" y="126.35" width="8.6" height="2.35" transform="translate(278.88 255.05) rotate(180)" style="fill:#bebcdb"/><rect x="135.14" y="130.64" width="8.6" height="2.35" transform="translate(278.88 263.62) rotate(180)" style="fill:#bebcdb"/><rect x="135.14" y="134.93" width="8.6" height="2.35" transform="translate(278.88 272.2) rotate(180)" style="fill:#bebcdb"/><rect x="135.14" y="139.22" width="8.6" height="2.35" transform="translate(278.88 280.78) rotate(180)" style="fill:#bebcdb"/><rect x="373.55" y="100.21" width="13.96" height="48.65" style="fill:#bebcdb"/><polygon points="457.44 148.86 457.44 77.56 431.54 65.53 421.93 65.53 421.93 63.41 421.56 63.41 421.56 82.24 419.59 82.24 419.59 69.58 409.01 69.58 409.01 82.24 407.23 82.24 407.23 101.76 405.24 101.76 405.24 148.86 457.44 148.86" style="fill:#bebcdb"/><rect x="345.71" y="41.08" width="21.7" height="106.97" style="fill:#bebcdb"/><polygon points="402.18 100.21 402.18 103.08 403.19 103.08 403.19 108.84 406.59 108.84 406.59 148.86 388.77 148.86 388.77 100.21 402.18 100.21" style="fill:#ada7ce"/><rect x="362.65" y="66.54" width="5.85" height="0.52" style="fill:#fffffc"/><rect x="361.18" y="67.07" width="8.77" height="8.79" style="fill:#d0d4ea"/><rect x="378.9" y="50.74" width="1.17" height="43.49" transform="translate(758.97 144.97) rotate(180)" style="fill:#d5daee"/><rect x="381.5" y="50.74" width="1.17" height="43.49" transform="translate(764.18 144.97) rotate(180)" style="fill:#d5daee"/><rect x="367.03" y="63.4" width="18.68" height="48.45" style="fill:#e6f1f5"/><polygon points="397.64 95.41 376.65 95.41 376.65 80.82 397.64 95.41" style="fill:#f3f8f5"/><rect x="353.23" y="76.18" width="25.26" height="72.68" style="fill:#e6f1f5"/><rect x="375.57" y="94.21" width="23.15" height="54.65" style="fill:#d5daee"/><rect x="434.21" y="62.03" width="4.84" height="32.25" style="fill:#afaacf"/><rect x="430.47" y="63.25" width="17.64" height="39.85" style="fill:#d5daee"/><rect x="428.48" y="93" width="3.2" height="0.85" transform="translate(860.16 186.85) rotate(180)" style="fill:#f3f8f5"/><rect x="428.07" y="93.66" width="4.02" height="0.37" transform="translate(860.16 187.7) rotate(180)" style="fill:#f3f8f5"/><rect x="427.07" y="94.04" width="6.03" height="6.21" transform="translate(860.16 194.28) rotate(180)" style="fill:#afaacf"/><polygon points="437 79.16 437 133.33 450.76 133.33 450.76 85.55 437 79.16" style="fill:#d5daee"/><rect x="425.77" y="90.9" width="8.19" height="42.42" style="fill:#d5daee"/><rect x="431.87" y="95.07" width="0.67" height="27.02" style="fill:#b9b5d6"/><rect x="430.38" y="95.07" width="0.67" height="27.02" style="fill:#b9b5d6"/><rect x="428.88" y="95.07" width="0.67" height="27.02" style="fill:#b9b5d6"/><rect x="427.39" y="95.07" width="0.67" height="27.02" style="fill:#b9b5d6"/><rect x="437.14" y="90.03" width="4.73" height="5.03" style="fill:#d5daee"/><rect x="357.25" y="31.75" width="8.66" height="8.92" transform="translate(723.16 72.41) rotate(180)" style="fill:#ada7ce"/><polygon points="315.12 148.86 316.12 92.77 317.33 92.77 317.33 87.02 337.17 84.96 337.17 96.28 339.51 96.28 339.51 34.61 367.71 34.61 367.71 94.87 370.25 94.87 370.25 148.86 315.12 148.86" style="fill:#d9e0f0"/><rect x="318.36" y="104.9" width="8.6" height="2.35" transform="translate(645.32 212.15) rotate(180)" style="fill:#bebcdb"/><rect x="318.36" y="109.19" width="8.6" height="2.35" transform="translate(645.32 220.73) rotate(180)" style="fill:#bebcdb"/><rect x="318.36" y="113.48" width="8.6" height="2.35" transform="translate(645.32 229.31) rotate(180)" style="fill:#bebcdb"/><rect x="318.36" y="117.77" width="8.6" height="2.35" transform="translate(645.32 237.89) rotate(180)" style="fill:#bebcdb"/><rect x="318.36" y="122.06" width="8.6" height="2.35" transform="translate(645.32 246.47) rotate(180)" style="fill:#bebcdb"/><rect x="318.36" y="126.35" width="8.6" height="2.35" transform="translate(645.32 255.05) rotate(180)" style="fill:#bebcdb"/><rect x="318.36" y="130.64" width="8.6" height="2.35" transform="translate(645.32 263.62) rotate(180)" style="fill:#bebcdb"/><rect x="318.36" y="134.93" width="8.6" height="2.35" transform="translate(645.32 272.2) rotate(180)" style="fill:#bebcdb"/><rect x="318.36" y="139.22" width="8.6" height="2.35" transform="translate(645.32 280.78) rotate(180)" style="fill:#bebcdb"/><rect x="304.77" y="105.65" width="18.73" height="43.12" style="fill:#d5daee"/><path d="M314.26,80.81V30.35h-4V28h-.9v-.37H309v-.66h-.67v-5h-.43l-.23-4.37h-.19l-.24,4.37h-.43v5h-.67v.66h-.37V28h-.9v2.4h-11.1l-6.4,7.79V80.81Zm-6.79-54.08h-.2V22.25h.2Zm.41,0h-.21V22.25h.21Z" style="fill:#d0d4ea"/><rect x="275.03" y="60.26" width="23.57" height="58.18" style="fill:#afaacf"/><rect x="88.41" y="88.48" width="3.57" height="0.95" style="fill:#f3f8f5"/><rect x="87.95" y="89.23" width="4.48" height="0.41" style="fill:#f3f8f5"/><rect x="86.83" y="89.64" width="6.72" height="6.92" style="fill:#afaacf"/><rect x="77.83" y="101.57" width="9.13" height="47.29" style="fill:#bebcdb"/><rect x="79.41" y="100.91" width="0.75" height="30.11" transform="translate(159.57 231.93) rotate(180)" style="fill:#b9b5d6"/><rect x="81.08" y="100.91" width="0.75" height="30.11" transform="translate(162.91 231.93) rotate(180)" style="fill:#b9b5d6"/><rect x="82.74" y="100.91" width="0.75" height="30.11" transform="translate(166.24 231.93) rotate(180)" style="fill:#b9b5d6"/><rect x="84.41" y="100.91" width="0.75" height="30.11" transform="translate(169.57 231.93) rotate(180)" style="fill:#b9b5d6"/><rect x="78.57" y="68.02" width="16.45" height="80.84" transform="translate(173.59 216.88) rotate(180)" style="fill:#ada7ce"/><polygon points="56.68 126.42 66.64 126.42 66.64 97.82 56.68 126.42" style="fill:#f3f8f5"/><rect x="52.41" y="65.55" width="12.23" height="44.58" transform="translate(117.05 175.69) rotate(180)" style="fill:#ada7ce"/><rect x="65.61" y="94.04" width="5.68" height="0.47" transform="translate(136.89 188.55) rotate(180)" style="fill:#fffffc"/><rect x="48.56" y="77.9" width="1.15" height="70.56" style="fill:#ada7ce"/><rect x="51.11" y="77.9" width="1.15" height="70.56" style="fill:#ada7ce"/><rect x="53.67" y="113.39" width="1.15" height="35.07" style="fill:#ada7ce"/><rect x="56.22" y="113.39" width="1.15" height="35.07" style="fill:#ada7ce"/><rect x="75.93" y="78.3" width="5.28" height="5.6" transform="translate(157.13 162.2) rotate(180)" style="fill:#d5daee"/><rect x="52.55" y="111.74" width="7.7" height="37.12" style="fill:#ada7ce"/><rect x="107.48" y="49.53" width="18.2" height="1.6" transform="translate(233.16 100.67) rotate(180)" style="fill:#d0d4ea"/><rect x="107.48" y="52.46" width="18.2" height="1.6" transform="translate(233.16 106.51) rotate(180)" style="fill:#d0d4ea"/><rect x="107.48" y="55.38" width="18.2" height="1.6" transform="translate(233.16 112.36) rotate(180)" style="fill:#d0d4ea"/><rect x="107.48" y="58.3" width="18.2" height="1.6" transform="translate(233.16 118.21) rotate(180)" style="fill:#d0d4ea"/><rect x="107.48" y="61.23" width="18.2" height="1.6" transform="translate(233.16 124.06) rotate(180)" style="fill:#d0d4ea"/><rect x="107.48" y="64.15" width="18.2" height="1.6" transform="translate(233.16 129.91) rotate(180)" style="fill:#d0d4ea"/><rect x="107.48" y="67.08" width="18.2" height="1.6" transform="translate(233.16 135.75) rotate(180)" style="fill:#d0d4ea"/><rect x="107.48" y="70" width="18.2" height="1.6" transform="translate(233.16 141.6) rotate(180)" style="fill:#d0d4ea"/><rect x="107.48" y="72.92" width="18.2" height="1.6" transform="translate(233.16 147.45) rotate(180)" style="fill:#d0d4ea"/><polygon points="91.33 148.86 123.9 148.86 124.21 47.59 91.33 44.19 91.33 148.86" style="fill:#d0d4ea"/><polygon points="91.33 148.86 97.94 148.86 98.31 47.37 91.33 44.19 91.33 148.86" style="fill:#a59dc7"/><polygon points="123.81 86.73 116.61 79.28 103.21 79.28 123.81 86.73" style="fill:#d5daee"/><rect x="111.67" y="98.39" width="0.99" height="50.47" style="fill:#f3f8f5;opacity:0.43"/><rect x="113.86" y="98.39" width="0.99" height="50.47" style="fill:#f3f8f5;opacity:0.43"/><rect x="116.05" y="98.39" width="0.99" height="50.47" style="fill:#f3f8f5;opacity:0.43"/><rect x="118.24" y="98.39" width="0.99" height="50.47" style="fill:#f3f8f5;opacity:0.43"/><rect x="142.49" y="94.03" width="15.84" height="7.24" style="fill:#e6f1f5"/><rect x="290.15" y="56.21" width="33.03" height="92.65" style="fill:#e6f1f5"/><rect x="296.18" y="74.5" width="20.03" height="74.05" style="fill:#d5daee"/><polygon points="76.2 83.19 74.22 95.03 74.22 122.74 72.51 122.74 72.51 109.53 67.38 109.53 67.38 94.7 61.92 94.7 61.92 73.07 52.9 73.07 52.9 68.82 51.01 68.82 51.01 73.07 47.45 73.07 47.45 77.88 45.56 77.88 45.56 65.4 41.86 65.4 41.86 148.86 84.56 148.86 84.56 91.25 83.2 83.39 76.2 83.19" style="fill:#d9e0f0"/><rect x="99.45" y="100.12" width="8.02" height="48.74" style="fill:#e6f1f5"/><rect x="123.42" y="86.3" width="6.05" height="62.56" style="fill:#e6f1f5"/></svg>